<svg xmlns="http://www.w3.org/2000/svg" version="1.1" viewBox="0 0 128 128" role="img" aria-label="RU Tap icon">
	<rect width="128" height="128" rx="28" fill="#cc0033" />

	<!-- TAP PULSE DOT -->
	<g transform="translate(93.75 34.25)">
		<circle r="10" fill="#ffd6e0">
			<animate attributeName="r" values="10;10;12;10" keyTimes="0;0.1;0.32;1" dur="2s" repeatCount="indefinite" />
			<animate attributeName="fill-opacity" values="1;1;0.82;1" keyTimes="0;0.1;0.32;1" dur="2s" repeatCount="indefinite" />
		</circle>
		<circle r="14" fill="none" stroke="#ffd6e0" stroke-width="3" stroke-opacity="0">
			<animate attributeName="r" values="14;14;30" keyTimes="0;0.1;1" dur="2s" repeatCount="indefinite" />
			<animate attributeName="stroke-opacity" values="0;0.78;0" keyTimes="0;0.1;1" dur="2s" repeatCount="indefinite" />
			<animate attributeName="stroke-width" values="3;3;1" keyTimes="0;0.1;1" dur="2s" repeatCount="indefinite" />
		</circle>
	</g>

	<!-- R LETTERFORM -->
	<g transform="translate(20 31) scale(0.44)">
		<g fill="#ffd6e0" stroke="#ffd6e0" stroke-linejoin="round" stroke-width="2">
			<path
				d="M84.83,24.5h-26.51s0,37.99,0,37.99h21.49c9.74,0,17.27-2.02,22.37-6.01l.06-.04c4.33-3.64,6.53-8.08,6.53-13.17,0-4.74-1.63-8.74-4.83-11.91-4.4-4.54-10.83-6.86-19.11-6.86M99.79,53.39h-.02c-4.39,3.45-11.11,5.19-19.96,5.19h-17.58v-30.18h22.6c7.17,0,12.66,1.9,16.3,5.67l.06.06c2.47,2.45,3.67,5.43,3.67,9.13,0,3.92-1.66,7.23-5.07,10.13" />
			<path
				d="M154.38,121.62l-27.34-41.53c19.82-8.05,29.86-20.61,29.86-37.35,0-12.15-4.83-22.04-14.79-30.25C131.89,4.19,117.99,0,100.79,0H0S0,28.38,0,28.38h11.28v93.23H0v28.38h73.89v-28.38h-11.66v-35.71h17.89l22.48,35.71h-12.24v28.38h79.35v-28.38h-15.33ZM165.8,146.09h-71.54v-20.56h15.41l-27.4-43.53h-23.95v43.53h11.66v20.56H3.91v-20.56h11.28V24.49H3.91V3.9h96.89c16.27,0,29.35,3.91,38.86,11.62,8.97,7.39,13.34,16.29,13.34,27.21,0,15.77-9.65,27.06-29.49,34.54l-2.39.9,31.16,47.35h13.53v20.56Z" />
		</g>
	</g>

	<!-- KNIGHT — top layer, clean edges, recolored -->
	<g id="knight-mark" transform="translate(28 -0.95) scale(0.042)">
		<path
			fill="#ffd6e0"
			fill-rule="evenodd"
			d="M 870,629 Q 878,647 851,661.5 Q 824,676 740.5,730 Q 657,784 644.5,771.5 Q 632,759 589.5,727.5 Q 547,696 502.5,667.5 Q 458,639 437,629.5 Q 416,620 416,617 Q 416,614 430,597 Q 444,580 427,589 Q 410,598 398.5,601.5 Q 387,605 369.5,608 Q 352,611 336,611 Q 320,611 291.5,605.5 Q 263,600 252,596 Q 241,592 223.5,581.5 Q 206,571 190,557.5 Q 174,544 162,529 Q 150,514 136,488.5 Q 122,463 116,445 Q 110,427 106,405 Q 102,383 102,350 Q 102,317 103.5,314.5 Q 105,312 108,312.5 Q 111,313 128,322 Q 145,331 172,341.5 Q 199,352 187.5,336 Q 176,320 170.5,300 Q 165,280 194.5,290 Q 224,300 242,301 Q 260,302 270,300 Q 280,298 294,291.5 Q 308,285 346.5,254.5 Q 385,224 409,209.5 Q 433,195 465,181.5 Q 497,168 509.5,165 Q 522,162 552.5,162 Q 583,162 611,166 Q 639,170 649.5,173.5 Q 660,177 671,182.5 Q 682,188 693,197 Q 704,206 711.5,218 Q 719,230 722.5,243.5 Q 726,257 723,272.5 Q 720,288 713,302 Q 706,316 739.5,337 Q 773,358 787.5,372 Q 802,386 815,408 Q 828,430 833.5,455.5 Q 839,481 849.5,490 Q 860,499 848.5,534 Q 837,569 849.5,590 Q 862,611 870,629 Z M 808.5,656.5 Q 843,636 825,602 Q 807,568 815,551 Q 823,534 826.5,521 Q 830,508 820.5,498.5 Q 811,489 810,471.5 Q 809,454 803.5,440 Q 798,426 791,415.5 Q 784,405 772.5,393 Q 761,381 731.5,363.5 Q 702,346 691.5,337 Q 681,328 678,319.5 Q 675,311 682,301.5 Q 689,292 692.5,283 Q 696,274 697,263.5 Q 698,253 696.5,246 Q 695,239 691,231.5 Q 687,224 680,217 Q 673,210 660.5,204 Q 648,198 641,196.5 Q 634,195 648,207 Q 662,219 668.5,230.5 Q 675,242 676,254 Q 677,266 671.5,281 Q 666,296 663.5,297 Q 661,298 656.5,295 Q 652,292 637,314 Q 622,336 589.5,355.5 Q 557,375 545,388 Q 533,401 520.5,426.5 Q 508,452 488.5,471 Q 469,490 451.5,503 Q 434,516 413,526 Q 392,536 373.5,540 Q 355,544 342,544 Q 329,544 313,540.5 Q 297,537 282,529.5 Q 267,522 253.5,510.5 Q 240,499 227,481.5 Q 214,464 203.5,438.5 Q 193,413 228.5,414 Q 264,415 282,413 Q 300,411 321.5,404.5 Q 343,398 355,392 Q 367,386 380.5,375 Q 394,364 360.5,374.5 Q 327,385 297,387 Q 267,389 232.5,384 Q 198,379 162.5,366.5 Q 127,354 128.5,374 Q 130,394 139,426.5 Q 148,459 154,471 Q 160,483 174,502.5 Q 188,522 205,537 Q 222,552 238.5,561 Q 255,570 267,574 Q 279,578 299,581.5 Q 319,585 340.5,584.5 Q 362,584 383,578 Q 404,572 422,562 Q 440,552 462.5,532 Q 485,512 492,534 Q 499,556 477,582.5 Q 455,609 512.5,645 Q 570,681 614.5,715.5 Q 659,750 663,749.5 Q 667,749 720.5,713 Q 774,677 808.5,656.5 Z M 801,616.5 Q 801,620 760.5,646 Q 720,672 691.5,692.5 Q 663,713 625,683.5 Q 587,654 546,627.5 Q 505,601 505,599 Q 505,597 517,583.5 Q 529,570 530.5,566 Q 532,562 531.5,559 Q 531,556 525,546 Q 519,536 516.5,527.5 Q 514,519 513.5,511.5 Q 513,504 514.5,500.5 Q 516,497 536.5,483 Q 557,469 577,459.5 Q 597,450 624.5,439.5 Q 652,429 674,436.5 Q 696,444 713,452.5 Q 730,461 752,475 Q 774,489 788.5,501 Q 803,513 802,518 Q 801,523 791,539 Q 781,555 779.5,560 Q 778,565 778.5,571 Q 779,577 790,595 Q 801,613 801,616.5 Z M 792,470.5 Q 793,479 786.5,473.5 Q 780,468 774,465 Q 768,462 763.5,457.5 Q 759,453 756.5,445.5 Q 754,438 747.5,429 Q 741,420 738,419 Q 735,418 725.5,421.5 Q 716,425 707,425 Q 698,425 678.5,417 Q 659,409 651,409.5 Q 643,410 627,416.5 Q 611,423 601.5,423 Q 592,423 580,420 Q 568,417 562.5,427 Q 557,437 555.5,443 Q 554,449 545,453.5 Q 536,458 533,461 Q 530,464 529,463.5 Q 528,463 532,448.5 Q 536,434 545,419.5 Q 554,405 566,393.5 Q 578,382 595,373 Q 612,364 621,357.5 Q 630,351 639,340 Q 648,329 649.5,324 Q 651,319 653,319 Q 655,319 658.5,326.5 Q 662,334 670,343 Q 678,352 712,371.5 Q 746,391 758,402 Q 770,413 777,426 Q 784,439 787.5,450.5 Q 791,462 792,470.5 Z M 222,324.5 Q 207,321 222,335.5 Q 237,350 250,357.5 Q 263,365 279,369.5 Q 295,374 309,374.5 Q 323,375 329,373.5 Q 335,372 321,370 Q 307,368 294.5,363 Q 282,358 274.5,351 Q 267,344 268,340.5 Q 269,337 278,336.5 Q 287,336 291,334 Q 295,332 302,331 Q 309,330 310.5,328.5 Q 312,327 323.5,323 Q 335,319 375.5,292.5 Q 416,266 437.5,255 Q 459,244 475,238 Q 491,232 510.5,227.5 Q 530,223 540,222 Q 550,221 572.5,222.5 Q 595,224 605,227 Q 615,230 621,233.5 Q 627,237 635.5,245.5 Q 644,254 644.5,257 Q 645,260 648.5,266 Q 652,272 652,262.5 Q 652,253 649,244 Q 646,235 643,232 Q 640,229 640,227.5 Q 640,226 629,216 Q 618,206 610.5,203 Q 603,200 600.5,197 Q 598,194 590.5,191.5 Q 583,189 573,187.5 Q 563,186 545.5,186.5 Q 528,187 507,193 Q 486,199 464,209 Q 442,219 413,237.5 Q 384,256 357,278 Q 330,300 313.5,309 Q 297,318 279,323 Q 261,328 249,328 Q 237,328 222,324.5 Z M 256,447 Q 256,448 269.5,456 Q 283,464 301,468 Q 319,472 334,471.5 Q 349,471 360.5,469 Q 372,467 390,459.5 Q 408,452 409.5,450 Q 411,448 413.5,447.5 Q 416,447 416.5,445.5 Q 417,444 424,440 Q 431,436 437,429 Q 443,422 445.5,421 Q 448,420 464,401.5 Q 480,383 483,381 Q 486,379 488,375.5 Q 490,372 505.5,357 Q 521,342 535.5,333 Q 550,324 561,321 Q 572,318 571.5,315 Q 571,312 565,309 Q 559,306 545.5,307 Q 532,308 520,312.5 Q 508,317 503.5,321 Q 499,325 495.5,326 Q 492,327 491.5,328.5 Q 491,330 485.5,333 Q 480,336 450.5,365 Q 421,394 403.5,407 Q 386,420 369,427.5 Q 352,435 333,440 Q 314,445 303.5,446 Q 293,447 274.5,446.5 Q 256,446 256,447 Z M 338.5,345.5 Q 326,348 330,349.5 Q 334,351 345,351 Q 356,351 376.5,345.5 Q 397,340 417,330 Q 437,320 439.5,317.5 Q 442,315 455.5,307.5 Q 469,300 484.5,293.5 Q 500,287 501,285.5 Q 502,284 519.5,279 Q 537,274 552,273 Q 567,272 576,274 Q 585,276 590.5,279.5 Q 596,283 600.5,287.5 Q 605,292 605.5,294.5 Q 606,297 608.5,298 Q 611,299 612.5,295.5 Q 614,292 614.5,281.5 Q 615,271 611.5,263.5 Q 608,256 599.5,250.5 Q 591,245 573.5,243.5 Q 556,242 541,244 Q 526,246 504,254 Q 482,262 465.5,272 Q 449,282 435.5,293 Q 422,304 420,304.5 Q 418,305 417,307 Q 416,309 413.5,309.5 Q 411,310 407.5,313.5 Q 404,317 400.5,318 Q 397,319 395,321.5 Q 393,324 388.5,326.5 Q 384,329 367.5,336 Q 351,343 338.5,345.5 Z M 714.5,503 Q 758,518 743.5,507 Q 729,496 702.5,482 Q 676,468 673,469 Q 670,470 670.5,479 Q 671,488 714.5,503 Z M 561.5,509 Q 555,515 595,501.5 Q 635,488 637,485 Q 639,482 639.5,475 Q 640,468 636,468 Q 632,468 618.5,475 Q 605,482 603,482 Q 601,482 584.5,492.5 Q 568,503 561.5,509 Z M 571.5,533.5 Q 561,540 597,533.5 Q 633,527 634.5,525 Q 636,523 636,516.5 Q 636,510 630,511 Q 624,512 603,519.5 Q 582,527 571.5,533.5 Z M 730,538 Q 751,543 748.5,540.5 Q 746,538 733,531.5 Q 720,525 697,518 Q 674,511 674,518 Q 674,525 677,527 Q 680,529 694.5,531 Q 709,533 730,538 Z" />
	</g>
</svg>
