<svg
	xmlns="http://www.w3.org/2000/svg"
	version="1.1"
	viewBox="0 0 128 128"
	role="img"
	aria-label="RU Tap icon still frame">
	<rect width="128" height="128" rx="28" fill="#c03" />
	<g transform="translate(93.75 34.25)">
		<circle r="11.470588" fill="#ffd6e0" fill-opacity="0.867647" />
		<circle r="21.111111" fill="none" stroke="#ffd6e0" stroke-width="2.111111" stroke-opacity="0.433333" />
	</g>
	<g transform="translate(20 31) scale(0.44)">
		<path
			fill="none"
			d="M121.11,78.18l2.39-.9c19.85-7.48,29.49-18.78,29.49-34.54,0-10.92-4.37-19.82-13.34-27.21-9.51-7.71-22.59-11.62-38.86-11.62,0,0-92.97,0-96.88,0v20.6c.61,0,4.93,0,11.28,0v101.02H3.91v20.56h66.07v-20.56h-11.66v-43.53h23.95l27.4,43.53h-15.41v20.56h71.54v-20.56h-13.53l-31.16-47.35ZM102.24,56.44l-.06.04c-5.1,3.99-12.62,6.01-22.37,6.01h-21.49V24.5c14.64,0,26.5,0,26.5,0,8.28,0,14.72,2.32,19.11,6.86,3.2,3.17,4.83,7.17,4.83,11.91,0,5.1-2.2,9.53-6.53,13.17" />
		<g fill="#ffd6e0" stroke="#ffd6e0" stroke-linejoin="round" stroke-width="2">
			<path
				d="M84.83,24.5h-26.51s0,37.99,0,37.99h21.49c9.74,0,17.27-2.02,22.37-6.01l.06-.04c4.33-3.64,6.53-8.08,6.53-13.17,0-4.74-1.63-8.74-4.83-11.91-4.4-4.54-10.83-6.86-19.11-6.86M99.79,53.39h-.02c-4.39,3.45-11.11,5.19-19.96,5.19h-17.58v-30.18h22.6c7.17,0,12.66,1.9,16.3,5.67l.06.06c2.47,2.45,3.67,5.43,3.67,9.13,0,3.92-1.66,7.23-5.07,10.13" />
			<path
				d="M154.38,121.62l-27.34-41.53c19.82-8.05,29.86-20.61,29.86-37.35,0-12.15-4.83-22.04-14.79-30.25C131.89,4.19,117.99,0,100.79,0H0S0,28.38,0,28.38h11.28v93.23H0v28.38h73.89v-28.38h-11.66v-35.71h17.89l22.48,35.71h-12.24v28.38h79.35v-28.38h-15.33ZM165.8,146.09h-71.54v-20.56h15.41l-27.4-43.53h-23.95v43.53h11.66v20.56H3.91v-20.56h11.28V24.49H3.91V3.9h96.89c16.27,0,29.35,3.91,38.86,11.62,8.97,7.39,13.34,16.29,13.34,27.21,0,15.77-9.65,27.06-29.49,34.54l-2.39.9,31.16,47.35h13.53v20.56Z" />
		</g>
	</g>
</svg>
